<?xml version="1.0" standalone="no"?>
<!DOCTYPE svg PUBLIC "-//W3C//DTD SVG 20010904//EN"
 "http://www.w3.org/TR/2001/REC-SVG-20010904/DTD/svg10.dtd">
<svg version="1.0" xmlns="http://www.w3.org/2000/svg"
 width="1024.000000pt" height="1024.000000pt" viewBox="0 0 1024.000000 1024.000000"
 preserveAspectRatio="xMidYMid meet">

<g transform="translate(0.000000,1024.000000) scale(0.100000,-0.100000)"
fill="#000000" stroke="none">
<path d="M465 10138 c-110 -221 -287 -516 -412 -685 l-53 -73 0 -106 c0 -105
0 -107 19 -90 21 19 191 255 230 319 13 21 25 36 28 33 2 -2 -12 -47 -31 -100
-20 -52 -36 -102 -36 -111 0 -41 21 -2 70 128 29 78 56 147 60 152 4 6 31 64
60 130 29 66 95 205 146 308 52 104 94 190 94 193 0 2 -28 4 -62 4 l-63 -1
-50 -101z"/>
<path d="M2823 10197 c14 -23 48 -78 75 -122 92 -145 123 -203 169 -317 47
-116 70 -150 137 -199 57 -42 78 -38 108 19 14 26 34 72 43 102 l17 56 -50
219 c-28 121 -53 235 -57 253 -6 28 -11 32 -37 32 -26 0 -29 -3 -25 -22 3 -13
13 -63 22 -113 25 -141 54 -275 72 -332 16 -50 15 -54 -7 -120 -26 -80 -35
-93 -52 -72 -7 8 -29 27 -49 42 -27 19 -42 42 -57 84 -26 73 -71 180 -111 261
-17 34 -31 65 -31 69 0 4 -26 51 -57 105 -57 97 -58 98 -96 98 l-39 0 25 -43z"/>
<path d="M7124 10188 c14 -124 18 -428 7 -547 -26 -284 -105 -520 -229 -683
-70 -93 -207 -229 -282 -280 -36 -25 -115 -82 -175 -128 -61 -45 -140 -96
-177 -113 -38 -16 -68 -33 -68 -37 0 -4 89 -5 198 -2 526 12 790 -93 1153
-461 77 -78 189 -208 189 -220 0 -11 -117 31 -190 68 -94 47 -317 181 -348
209 -13 12 -40 47 -59 79 -20 31 -38 57 -40 57 -2 0 8 -23 23 -51 14 -28 24
-52 22 -54 -4 -3 -298 172 -318 190 -8 7 -34 21 -57 29 -24 9 -62 23 -84 31
-23 9 -61 18 -84 22 -37 5 -47 2 -69 -20 -23 -23 -24 -29 -19 -101 6 -75 6
-76 -18 -76 -13 0 -60 9 -105 20 -203 48 -686 75 -909 50 -224 -26 -449 -118
-566 -233 -35 -35 -77 -80 -94 -101 -16 -20 -32 -40 -35 -43 -6 -8 12 3 77 44
57 36 72 39 93 21 12 -11 12 -10 2 3 -10 13 -8 19 6 31 63 56 270 131 475 173
150 30 536 59 677 50 158 -10 384 -36 394 -46 6 -5 20 -53 32 -106 31 -139 57
-190 177 -348 124 -164 151 -193 276 -300 51 -44 123 -106 160 -138 66 -59
183 -145 272 -202 26 -16 79 -52 118 -78 69 -47 71 -50 91 -116 11 -38 20 -71
20 -74 0 -3 -24 2 -52 12 -62 21 -199 54 -313 75 -44 9 -127 29 -185 46 -58
17 -128 34 -157 38 -28 5 -58 14 -65 20 -8 6 -41 18 -74 26 -32 7 -95 24 -139
36 -44 12 -95 22 -112 22 -18 0 -33 4 -33 8 0 16 -38 21 -66 8 -22 -10 -28
-10 -32 0 -2 6 -10 12 -18 12 -9 0 -13 4 -9 9 3 5 0 13 -6 17 -7 4 -9 3 -5 -4
3 -6 -2 -15 -11 -21 -14 -8 -8 -14 10 -10 1 0 28 -11 60 -26 32 -14 55 -21 52
-15 -4 7 6 10 29 8 31 -2 35 -5 30 -21 -4 -12 -2 -17 4 -13 6 3 13 2 17 -3 3
-6 13 -7 22 -4 11 4 14 3 9 -5 -4 -7 -3 -12 3 -12 23 0 19 19 -6 29 l-28 11
27 -4 c15 -1 29 2 32 8 3 6 3 -1 1 -17 -4 -29 18 -48 45 -39 8 2 11 1 7 -4
-13 -14 239 -95 707 -229 159 -46 292 -88 296 -95 4 -6 15 -46 25 -88 16 -74
16 -82 -3 -222 -11 -80 -26 -198 -32 -262 l-12 -117 -67 -26 c-91 -36 -152
-77 -210 -141 -73 -79 -100 -175 -63 -221 29 -36 139 -100 195 -113 100 -23
91 -4 84 -164 -15 -339 -87 -618 -232 -901 -144 -282 -427 -628 -709 -868 -66
-56 -200 -171 -298 -255 -99 -84 -196 -165 -217 -180 -21 -15 -68 -49 -104
-75 l-65 -48 -204 -14 c-484 -34 -855 -93 -1238 -195 l-115 -31 -498 165
c-393 130 -528 180 -640 234 -341 165 -598 375 -768 630 -66 98 -188 335 -254
492 -52 124 -184 377 -253 486 -38 60 -135 210 -217 334 l-148 224 6 276 c10
466 66 885 183 1371 l45 187 60 56 c106 100 323 228 519 305 142 56 134 56
162 2 145 -275 313 -540 338 -534 5 2 9 -3 7 -10 -1 -6 4 -11 11 -9 8 1 10 -2
7 -8 -9 -14 24 -52 38 -43 6 4 7 1 2 -6 -7 -12 111 -135 225 -236 25 -22 69
-62 98 -88 29 -26 57 -45 62 -42 6 4 9 1 8 -7 -2 -8 6 -12 22 -10 18 1 21 -1
11 -7 -11 -7 -9 -12 10 -24 13 -8 50 -31 82 -51 31 -20 57 -33 57 -30 0 2 10
-4 22 -16 12 -11 26 -20 31 -20 4 0 15 -7 24 -16 9 -8 22 -13 30 -10 8 3 12 2
9 -3 -9 -14 213 -123 236 -115 12 3 18 2 15 -3 -4 -5 69 -40 161 -77 92 -38
183 -75 204 -83 20 -8 42 -12 49 -8 7 5 10 4 5 -3 -5 -9 178 -77 232 -85 9 -1
22 -5 27 -8 27 -17 119 -40 136 -36 10 3 17 1 13 -4 -3 -5 2 -9 10 -9 9 0 16
7 16 15 0 8 -4 15 -10 15 -16 0 -24 2 -50 12 -47 19 -195 56 -202 51 -5 -2 -8
0 -8 5 0 5 -21 15 -47 22 -27 7 -52 16 -57 21 -5 4 -15 5 -22 2 -8 -3 -14 0
-14 6 0 6 -6 11 -13 11 -7 0 -37 12 -66 26 -30 14 -60 23 -68 20 -8 -3 -12 -2
-9 2 2 4 -55 31 -127 60 -73 30 -139 58 -147 63 -8 5 -26 14 -40 21 -14 7 -55
29 -92 51 -37 21 -72 36 -78 32 -6 -4 -10 -3 -9 2 3 20 -2 27 -11 13 -8 -13
-10 -12 -10 4 0 12 -5 16 -15 12 -8 -3 -14 -1 -12 5 1 6 -7 16 -18 22 -10 7
-33 24 -50 39 -16 16 -33 28 -37 28 -4 0 -14 8 -24 18 -10 9 -29 18 -43 19
-23 2 -24 1 -9 -11 17 -12 15 -26 -4 -26 -5 0 -6 5 -2 12 5 8 2 9 -10 5 -14
-6 -15 -3 -5 14 6 12 17 18 25 15 25 -10 15 2 -21 24 -20 12 -43 19 -52 16
-12 -5 -13 -4 -5 7 9 10 -9 31 -83 96 -52 45 -95 77 -95 71 0 -6 7 -13 15 -16
8 -4 15 -11 15 -17 0 -5 -9 -2 -20 8 -12 11 -18 26 -15 35 6 18 -17 34 -45 32
-10 -1 -11 0 -2 4 19 9 14 26 -7 19 -12 -4 -21 0 -25 11 -5 14 -4 15 9 4 28
-24 15 3 -22 44 -92 101 -207 248 -260 330 -20 31 -27 36 -35 25 -8 -11 -9
-11 -5 2 3 10 -14 49 -40 90 -25 40 -58 96 -73 124 -15 27 -40 71 -55 97 -14
26 -24 52 -21 57 9 13 260 23 351 13 44 -5 82 -8 83 -6 9 7 -109 66 -168 85
-68 22 -206 29 -286 15 -39 -7 -42 -6 -48 19 -4 16 -11 23 -18 19 -7 -5 -8 -3
-3 5 4 7 0 29 -8 49 -21 51 -30 75 -31 87 -4 33 -61 241 -67 245 -5 3 -7 15
-5 27 3 11 1 38 -4 59 -27 122 -40 230 -40 322 0 34 -4 62 -9 62 -5 0 -7 -19
-5 -42 3 -36 2 -39 -6 -18 -9 23 -9 23 -5 -6 2 -18 7 -43 11 -58 4 -16 2 -26
-5 -26 -6 0 -12 17 -12 38 l-2 37 -7 -35 c-7 -31 -7 -30 -4 10 2 25 7 63 10
84 5 28 4 37 -4 32 -6 -4 -8 -14 -5 -23 4 -11 3 -14 -5 -9 -7 4 -12 17 -13 29
0 21 -1 21 -10 -3 -6 -14 -7 -41 -3 -60 4 -19 8 -51 9 -70 4 -103 6 -121 13
-117 4 3 7 -16 7 -41 -1 -26 3 -63 7 -82 5 -19 19 -93 33 -165 14 -71 43 -190
65 -263 22 -72 40 -136 40 -141 0 -6 -44 -31 -97 -56 -169 -80 -323 -174 -448
-275 -38 -31 -75 -59 -81 -63 -25 -15 337 1127 367 1157 5 6 9 24 9 40 -1 30
-1 30 -16 11 -15 -19 -16 -18 -9 15 4 19 13 38 19 42 6 4 1 6 -12 5 -12 0 -21
-6 -20 -12 1 -5 -4 -22 -10 -37 -6 -15 -9 -35 -5 -45 4 -11 3 -14 -5 -9 -8 4
-12 0 -12 -11 0 -11 -5 -24 -12 -31 -7 -7 -8 -12 -4 -12 5 0 3 -7 -4 -15 -7
-9 -10 -26 -6 -42 5 -21 4 -24 -4 -13 -5 8 -10 12 -11 8 -2 -11 -4 -17 -18
-66 -6 -23 -9 -48 -5 -54 4 -6 3 -8 -3 -5 -6 4 -17 -16 -26 -46 -9 -28 -45
-134 -81 -235 -78 -219 -162 -473 -210 -636 -32 -109 -39 -124 -84 -170 -61
-64 -172 -192 -172 -199 0 -2 43 38 96 90 53 51 99 92 101 89 2 -2 -5 -41 -17
-87 -58 -231 -140 -647 -180 -911 -83 -557 -103 -1081 -65 -1678 16 -238 46
-514 61 -555 4 -13 4 -17 -3 -10 -28 29 -116 275 -169 473 -14 53 -46 155 -70
225 -51 149 -107 354 -122 447 -6 36 -20 103 -31 150 -35 153 -73 416 -104
710 -9 83 -6 -218 3 -350 24 -340 70 -570 211 -1062 167 -584 343 -1037 499
-1288 26 -43 124 -232 218 -421 214 -433 335 -628 530 -860 74 -88 88 -99 116
-99 18 0 66 -11 106 -25 40 -14 75 -23 78 -21 2 3 -8 40 -22 83 -14 43 -30
111 -36 152 -6 41 -12 77 -14 79 -3 2 -44 -15 -92 -37 -48 -23 -95 -41 -105
-41 -60 0 -387 528 -513 828 -60 142 -146 581 -146 743 0 75 -3 99 -15 109
-31 26 -36 -3 -33 -188 4 -223 -1 -218 -78 81 -93 363 -150 666 -156 840 l-4
98 31 -35 c16 -19 78 -90 136 -158 l106 -123 -9 -84 c-6 -64 -5 -87 5 -93 23
-15 32 -1 41 62 l8 64 47 -51 c51 -58 201 -158 295 -198 42 -18 68 -36 82 -58
11 -18 38 -59 58 -91 76 -117 285 -343 401 -433 41 -31 399 -215 445 -228 14
-4 66 -24 115 -45 50 -21 136 -52 193 -69 57 -17 156 -53 220 -79 132 -56 302
-112 336 -112 27 0 51 -24 43 -42 -2 -7 -63 -33 -133 -57 -246 -84 -565 -216
-769 -318 -49 -25 -92 -47 -94 -49 -3 -2 5 -23 17 -47 40 -80 65 -211 70 -369
2 -82 7 -148 11 -148 3 0 21 30 40 66 36 70 151 196 189 208 12 4 36 1 54 -7
18 -8 41 -18 52 -21 14 -5 17 -12 12 -34 -9 -39 -32 -166 -56 -312 -11 -69
-26 -137 -32 -153 l-10 -27 -786 2 -786 3 -72 83 c-40 46 -112 138 -160 205
-49 66 -106 137 -126 158 -21 21 -38 46 -38 56 0 10 -20 51 -45 91 -87 140
-186 360 -295 658 -48 130 -69 233 -85 419 -4 39 -15 138 -26 220 -10 83 -23
202 -29 265 -15 164 -21 203 -32 192 -17 -17 20 -557 62 -902 58 -465 164
-910 320 -1328 23 -63 40 -116 37 -118 -2 -3 -338 -5 -746 -4 l-741 0 0 -660
0 -660 5120 0 5120 0 0 660 0 660 -681 0 c-374 0 -679 3 -677 8 2 4 46 93 99
197 154 302 260 561 349 845 58 185 68 233 49 225 -8 -3 -36 -74 -62 -158
-104 -326 -248 -667 -393 -930 -86 -155 -110 -187 -140 -187 -13 0 -24 4 -24
9 0 6 20 52 45 105 143 304 246 649 295 991 6 44 16 99 21 123 5 24 8 46 5 50
-4 7 18 327 29 416 3 27 21 78 39 115 50 98 134 293 173 401 56 155 144 508
161 647 13 114 -10 79 -48 -70 -106 -425 -219 -727 -395 -1052 -153 -282 -251
-426 -405 -594 -164 -179 -454 -422 -706 -589 -506 -337 -1078 -520 -1552
-499 -137 6 -522 65 -522 79 0 4 12 8 28 8 15 0 65 9 112 20 312 74 527 196
766 435 158 157 265 288 394 480 324 484 553 1003 645 1456 79 395 131 839
141 1217 l7 242 89 0 c108 0 280 15 442 39 103 15 128 15 182 4 130 -27 295
-44 494 -53 117 -5 258 -18 328 -30 137 -22 307 -37 550 -47 l162 -6 0 40 c0
39 -1 41 -37 47 -21 3 -66 6 -101 6 -35 0 -105 4 -155 10 -51 5 -202 14 -337
21 -135 6 -269 15 -299 20 -29 4 -150 13 -270 19 -119 7 -268 20 -331 31 -100
16 -125 17 -190 6 -49 -8 -200 -12 -435 -12 -355 0 -361 0 -471 27 -100 24
-213 73 -230 99 -12 21 19 77 74 134 79 81 220 155 363 191 153 38 380 45 498
14 73 -18 93 -20 150 -11 36 5 134 13 216 16 177 7 195 14 209 89 21 118 -15
160 -264 301 -122 69 -215 131 -295 196 -80 65 -220 159 -419 280 -76 46 -173
109 -215 140 -42 31 -129 90 -192 131 -63 42 -139 96 -171 120 -66 52 -202
178 -196 183 2 2 37 -17 78 -42 110 -67 394 -189 562 -241 35 -11 88 -31 118
-44 81 -37 105 -44 220 -74 58 -14 125 -38 150 -53 25 -15 63 -35 85 -46 62
-28 108 -62 172 -123 161 -156 353 -307 489 -388 55 -32 122 -79 149 -105 65
-61 213 -164 290 -201 33 -16 71 -35 85 -42 50 -27 151 -56 190 -56 36 0 43 4
61 35 13 22 25 32 32 28 25 -16 83 -33 114 -33 89 0 118 49 111 191 -5 91 -8
105 -47 181 -93 183 -103 198 -191 281 -79 74 -89 87 -101 137 -20 86 -9 136
43 199 26 31 29 31 65 21 51 -15 215 -9 221 8 3 9 -14 12 -60 12 -74 1 -145
13 -160 28 -7 7 -4 20 12 42 43 60 12 39 -96 -68 l-110 -107 19 -80 c36 -156
34 -152 90 -189 61 -40 89 -69 145 -150 55 -78 101 -218 104 -317 4 -138 1
-158 -26 -170 -32 -15 -113 22 -181 82 -27 25 -82 70 -121 102 -254 204 -363
345 -463 596 l-62 155 27 95 c40 143 117 282 258 466 25 33 44 66 41 73 -3 7
-1 11 3 8 5 -3 16 9 26 27 l17 32 -19 -22 c-11 -13 -24 -23 -29 -23 -4 0 -31
-23 -60 -50 -36 -35 -51 -55 -47 -68 4 -12 3 -13 -3 -4 -11 15 -27 -2 -99
-103 -86 -120 -154 -256 -154 -307 0 -26 -19 -22 -53 10 l-29 27 7 -25 c4 -14
16 -34 26 -46 13 -14 19 -35 19 -70 0 -92 36 -189 127 -344 25 -44 87 -114
188 -215 179 -178 296 -286 321 -296 11 -4 32 -18 48 -32 32 -26 31 -57 -2
-57 -20 0 -149 46 -167 59 -5 4 -35 18 -65 30 -77 33 -246 149 -305 210 -29
30 -96 80 -158 116 -59 36 -142 90 -184 122 -122 92 -302 272 -368 367 l-58
86 12 42 c17 56 72 168 82 168 5 0 27 24 50 53 140 177 430 433 571 504 72 37
150 41 248 13 131 -38 185 -44 256 -31 58 10 69 10 107 -7 23 -11 60 -38 81
-61 22 -22 56 -46 75 -52 69 -21 236 -110 276 -146 l40 -36 3 62 3 61 -71 84
c-38 47 -75 88 -81 91 -17 11 -24 -4 -11 -23 23 -34 52 -91 52 -106 0 -13 -3
-13 -27 -1 -16 8 -66 33 -113 56 -84 40 -169 97 -170 112 0 14 83 98 113 113
27 15 31 14 70 -12 23 -15 85 -70 139 -122 l98 -95 0 59 c0 58 -1 60 -57 123
-32 36 -85 82 -118 104 -51 33 -66 38 -98 34 -22 -3 -49 -15 -61 -26 -13 -12
-60 -39 -105 -61 -99 -48 -147 -51 -328 -19 -65 11 -134 23 -153 26 -74 11
-277 -98 -430 -232 -110 -96 -134 -114 -156 -117 -33 -4 -288 13 -324 22 -19
5 -47 12 -62 15 -42 8 -52 97 -44 385 13 449 59 683 179 914 52 100 198 297
260 351 94 82 165 134 252 186 50 29 83 55 74 56 -8 2 -44 -3 -80 -12 -89 -22
-571 -33 -701 -16 -115 16 -249 59 -347 113 -223 123 -458 356 -667 660 l-39
58 -59 0 -59 0 7 -52z m396 -628 c0 -5 -2 -10 -4 -10 -3 0 -8 5 -11 10 -3 6
-1 10 4 10 6 0 11 -4 11 -10z m-125 -60 c3 -5 1 -10 -4 -10 -6 0 -11 5 -11 10
0 6 2 10 4 10 3 0 8 -4 11 -10z m-35 -94 c0 -3 -4 -8 -10 -11 -5 -3 -10 -1
-10 4 0 6 5 11 10 11 6 0 10 -2 10 -4z m1403 -99 c3 -8 -3 -13 -14 -13 -19 0
-24 8 -12 19 10 11 20 8 26 -6z m-43 -47 c0 -5 -4 -10 -10 -10 -5 0 -10 5 -10
10 0 6 5 10 10 10 6 0 10 -4 10 -10z m-60 -10 c0 -5 -5 -10 -11 -10 -5 0 -7 5
-4 10 3 6 8 10 11 10 2 0 4 -4 4 -10z m-20 -30 c0 -5 -4 -10 -10 -10 -5 0 -10
5 -10 10 0 6 5 10 10 10 6 0 10 -4 10 -10z m-660 -30 c0 -5 -5 -10 -11 -10 -5
0 -7 5 -4 10 3 6 8 10 11 10 2 0 4 -4 4 -10z m510 -28 c0 -5 -8 -17 -18 -28
-10 -11 -17 -25 -14 -32 4 -13 -14 -17 -22 -4 -9 15 6 52 20 52 8 0 14 5 14
10 0 6 5 10 10 10 6 0 10 -4 10 -8z m-410 -22 c0 -5 -4 -10 -10 -10 -5 0 -10
5 -10 10 0 6 5 10 10 10 6 0 10 -4 10 -10z m425 -30 c3 -5 -3 -10 -15 -10 -12
0 -18 5 -15 10 3 6 10 10 15 10 5 0 12 -4 15 -10z m-215 -20 c0 -5 -4 -10 -10
-10 -5 0 -10 5 -10 10 0 6 5 10 10 10 6 0 10 -4 10 -10z m-810 -10 c0 -5 -4
-10 -10 -10 -5 0 -10 5 -10 10 0 6 5 10 10 10 6 0 10 -4 10 -10z m1024 -6 c9
-22 -13 -49 -28 -34 -8 8 -7 14 4 21 11 8 9 9 -10 3 -22 -6 -23 -5 -11 10 17
21 37 21 45 0z m-60 -39 c-4 -8 -10 -12 -15 -9 -11 6 -2 24 11 24 5 0 7 -7 4
-15z m-136 -34 c3 -8 -1 -12 -9 -9 -7 2 -15 10 -17 17 -3 8 1 12 9 9 7 -2 15
-10 17 -17z m-548 -47 c0 -8 -4 -12 -10 -9 -5 3 -10 10 -10 16 0 5 5 9 10 9 6
0 10 -7 10 -16z m400 -224 c0 -5 -4 -10 -10 -10 -5 0 -10 5 -10 10 0 6 5 10
10 10 6 0 10 -4 10 -10z m-230 -80 c0 -5 -4 -10 -10 -10 -5 0 -10 5 -10 10 0
6 5 10 10 10 6 0 10 -4 10 -10z m-47 -73 c-3 -5 -10 -4 -15 1 -6 6 -7 16 -3
22 6 9 9 9 16 -1 4 -7 5 -17 2 -22z m197 23 c0 -5 -5 -10 -11 -10 -5 0 -7 5
-4 10 3 6 8 10 11 10 2 0 4 -4 4 -10z m80 0 c0 -5 -4 -10 -10 -10 -5 0 -10 5
-10 10 0 6 5 10 10 10 6 0 10 -4 10 -10z m55 0 c3 -5 1 -10 -4 -10 -6 0 -11 5
-11 10 0 6 2 10 4 10 3 0 8 -4 11 -10z m-425 -50 c0 -5 -4 -10 -10 -10 -5 0
-10 5 -10 10 0 6 5 10 10 10 6 0 10 -4 10 -10z m345 -10 c3 -5 -1 -10 -9 -10
-8 0 -18 5 -21 10 -3 6 1 10 9 10 8 0 18 -4 21 -10z m53 -38 c-20 -26 -42 -41
-58 -41 -10 0 -7 4 6 11 12 5 27 21 33 35 6 13 16 21 22 18 7 -5 6 -12 -3 -23z
m-28 13 c0 -2 -13 -11 -30 -20 -33 -17 -40 -10 -12 11 17 13 42 19 42 9z m-80
-85 c0 -5 -4 -10 -10 -10 -5 0 -10 5 -10 10 0 6 5 10 10 10 6 0 10 -4 10 -10z
m120 -10 c0 -5 -7 -10 -16 -10 -8 0 -12 5 -9 10 3 6 10 10 16 10 5 0 9 -4 9
-10z m-580 -19 c0 -6 -4 -13 -10 -16 -5 -3 -10 1 -10 9 0 9 5 16 10 16 6 0 10
-4 10 -9z m485 -1 c3 -5 1 -10 -4 -10 -6 0 -11 5 -11 10 0 6 2 10 4 10 3 0 8
-4 11 -10z m59 -31 c-6 -11 -24 -2 -24 11 0 5 7 7 15 4 8 -4 12 -10 9 -15z
m-267 -4 c3 -9 3 -18 0 -21 -8 -8 -57 7 -57 18 0 5 4 7 9 3 5 -3 12 -1 16 5 9
15 25 12 32 -5z m153 5 c0 -5 -4 -10 -9 -10 -6 0 -13 5 -16 10 -3 6 1 10 9 10
9 0 16 -4 16 -10z m-5766 -50 c-6 -5 -24 21 -24 34 0 6 6 1 14 -10 8 -10 12
-21 10 -24z m5511 11 c19 -22 19 -23 1 -20 -11 2 -21 14 -23 28 -2 14 -2 23
-1 20 2 -2 12 -15 23 -28z m140 9 c3 -5 1 -10 -4 -10 -6 0 -11 5 -11 10 0 6 2
10 4 10 3 0 8 -4 11 -10z m-275 -15 c-7 -8 -17 -15 -22 -15 -6 0 -5 7 2 15 7
8 17 15 22 15 6 0 5 -7 -2 -15z m440 -5 c8 -5 12 -12 9 -15 -8 -8 -39 5 -39
16 0 11 11 11 30 -1z m-216 -15 c3 -9 0 -15 -9 -15 -9 0 -12 6 -9 15 4 8 7 15
9 15 2 0 5 -7 9 -15z m106 5 c0 -5 -5 -10 -11 -10 -5 0 -7 5 -4 10 3 6 8 10
11 10 2 0 4 -4 4 -10z m-5720 -19 c0 -6 -4 -13 -10 -16 -5 -3 -10 1 -10 9 0 9
5 16 10 16 6 0 10 -4 10 -9z m5656 -6 c-4 -11 1 -14 23 -11 15 2 34 7 42 11
12 8 12 6 0 -8 -9 -11 -10 -17 -2 -17 6 0 11 -4 11 -10 0 -5 -5 -9 -11 -7 -6
1 -13 -3 -16 -9 -2 -6 8 -14 22 -16 18 -4 25 -2 21 7 -3 10 5 12 33 8 27 -4
42 0 55 12 9 10 20 15 23 12 3 -4 -12 -16 -32 -29 -24 -13 -33 -24 -25 -26 8
-3 16 0 18 7 2 6 20 11 39 11 29 0 33 2 24 14 -20 24 6 29 29 6 11 -11 18 -20
15 -20 -2 0 0 -12 5 -26 9 -22 7 -27 -10 -31 -15 -4 -17 -9 -10 -23 7 -13 7
-21 0 -25 -6 -4 -7 -11 -4 -17 4 -6 10 -5 15 3 7 11 9 10 9 -3 0 -21 -22 -36
-28 -19 -4 11 -6 11 -12 1 -5 -7 -6 -19 -3 -27 6 -15 33 -18 33 -3 0 6 5 10
10 10 19 0 10 -26 -19 -51 -29 -26 -30 -26 -37 -5 -4 12 -7 28 -8 36 -3 33
-18 60 -34 60 -15 0 -15 -2 -2 -10 12 -7 12 -12 2 -22 -6 -6 -12 -22 -12 -35
0 -13 -4 -23 -10 -23 -12 0 -12 2 0 34 5 14 6 26 1 26 -4 0 -7 17 -6 38 3 58
4 62 15 62 7 0 7 -7 0 -21 -15 -28 -2 -39 16 -15 25 35 18 51 -24 51 -41 -1
-72 -21 -64 -43 3 -9 -3 -11 -21 -7 -14 4 -28 2 -31 -4 -10 -15 -27 -14 -25 2
5 43 -2 67 -21 67 -11 0 -20 7 -20 15 0 8 5 15 11 15 6 0 3 7 -6 16 -20 20
-26 15 -27 -24 -1 -26 -3 -28 -15 -16 -8 7 -12 17 -10 21 3 5 -15 8 -40 8 -24
0 -47 4 -50 9 -4 5 -1 6 7 1 10 -6 11 -2 6 19 -3 14 -2 26 3 26 21 0 41 -13
41 -26 0 -8 5 -14 10 -14 6 0 10 7 10 15 0 16 16 20 24 6 7 -10 56 9 56 22 0
4 3 7 6 7 3 0 4 -7 0 -15z m-5465 -45 c5 0 9 -12 8 -27 l-1 -28 -10 28 c-5 15
-13 25 -17 23 -4 -3 -5 9 -2 27 5 32 6 32 9 5 2 -16 8 -28 13 -28z m5594 20
c3 -5 2 -10 -4 -10 -5 0 -13 5 -16 10 -3 6 -2 10 4 10 5 0 13 -4 16 -10z m175
0 c0 -5 -4 -10 -10 -10 -5 0 -10 5 -10 10 0 6 5 10 10 10 6 0 10 -4 10 -10z
m-5980 -17 c0 -10 -5 -25 -11 -33 -8 -12 -9 -10 -4 9 5 16 4 21 -4 17 -7 -5
-9 -1 -5 8 8 21 24 20 24 -1z m4453 -24 c72 -36 192 -110 495 -306 184 -119
308 -183 447 -232 77 -27 196 -70 264 -95 67 -26 150 -54 183 -62 33 -9 79
-24 102 -33 44 -19 129 -40 266 -66 47 -9 106 -21 133 -27 l47 -10 -47 -56
c-202 -239 -247 -347 -188 -451 14 -24 23 -46 21 -48 -2 -3 -52 18 -109 46
-58 28 -110 51 -117 51 -7 0 -34 11 -61 25 -27 13 -66 27 -86 30 -40 7 -48 9
-128 45 -27 13 -93 37 -145 55 -94 33 -239 91 -335 135 -309 140 -390 187
-511 295 -110 99 -121 110 -180 201 -57 87 -112 198 -151 308 -26 74 -25 123
2 146 8 7 15 19 15 26 0 22 -26 16 -42 -8 l-15 -23 -8 33 c-8 39 7 62 41 62
14 0 61 -19 107 -41z m-4498 -79 c-4 -17 -9 -29 -12 -26 -3 2 -2 19 2 36 4 17
9 29 12 26 3 -2 2 -19 -2 -36z m5712 33 c-4 -3 -2 -12 5 -20 6 -7 8 -16 5 -19
-7 -8 18 -34 32 -34 5 0 13 -9 16 -20 4 -11 11 -18 16 -15 5 4 9 1 9 -4 0 -6
-4 -11 -10 -11 -5 0 -7 -7 -3 -16 4 -12 2 -15 -8 -12 -8 3 -13 16 -12 32 2 36
-15 33 -33 -6 -10 -22 -14 -25 -10 -10 4 23 4 23 -14 7 -19 -17 -18 -33 8 -72
7 -12 11 -27 7 -33 -8 -13 -45 31 -45 54 0 8 -8 21 -19 28 -26 19 -18 78 12
78 6 0 2 -7 -9 -15 -10 -8 -14 -15 -8 -15 19 0 35 26 28 46 -4 14 -3 16 4 5 8
-11 12 -10 20 5 8 14 7 23 -5 36 -15 17 -15 18 2 18 10 0 15 -3 12 -7z m-142
-73 c3 -5 1 -10 -4 -10 -6 0 -11 5 -11 10 0 6 2 10 4 10 3 0 8 -4 11 -10z m65
-4 c0 -3 -4 -8 -10 -11 -5 -3 -10 -1 -10 4 0 6 5 11 10 11 6 0 10 -2 10 -4z
m170 -6 c0 -5 -2 -10 -4 -10 -3 0 -8 5 -11 10 -3 6 -1 10 4 10 6 0 11 -4 11
-10z m25 -10 c3 -5 1 -10 -4 -10 -6 0 -11 5 -11 10 0 6 2 10 4 10 3 0 8 -4 11
-10z m-266 -30 c-2 -15 -18 -43 -18 -32 -1 6 -8 12 -16 12 -15 0 -21 31 -9 43
6 6 45 -14 43 -23z m47 10 c15 0 16 -5 8 -37 -3 -12 -12 -24 -20 -27 -11 -4
-12 -1 -5 12 6 11 6 24 0 33 -5 7 -8 21 -8 29 0 10 2 11 6 3 2 -7 11 -13 19
-13z m-5349 -42 c-3 -8 -6 -5 -6 6 -1 11 2 17 5 13 3 -3 4 -12 1 -19z m5377
-33 c-13 -20 -13 -25 -3 -25 11 0 11 -2 -1 -9 -8 -6 -17 -8 -21 -5 -10 6 20
64 32 64 5 0 2 -11 -7 -25z m366 18 c0 -5 -5 -15 -10 -23 -8 -12 -10 -11 -10
8 0 12 5 22 10 22 6 0 10 -3 10 -7z m-526 -37 c-6 -15 -24 -23 -24 -11 0 8 24
34 28 30 1 -1 0 -10 -4 -19z m346 14 c0 -5 -5 -10 -11 -10 -5 0 -7 5 -4 10 3
6 8 10 11 10 2 0 4 -4 4 -10z m-60 -4 c0 -3 -4 -8 -10 -11 -5 -3 -10 -1 -10 4
0 6 5 11 10 11 6 0 10 -2 10 -4z m22 -18 c-7 -7 -12 -8 -12 -2 0 14 12 26 19
19 2 -3 -1 -11 -7 -17z m148 -28 c0 -5 -5 -10 -11 -10 -5 0 -7 5 -4 10 3 6 8
10 11 10 2 0 4 -4 4 -10z m68 -15 c0 -13 -7 -30 -15 -37 -12 -10 -13 -7 -7 16
6 26 5 27 -15 17 -25 -14 -27 -28 -4 -53 13 -15 14 -21 4 -31 -11 -10 -13 -9
-9 3 6 20 -19 43 -37 36 -8 -3 -15 -3 -15 1 0 13 73 72 91 73 4 0 7 -11 7 -25z
m-373 5 c3 -5 -1 -10 -9 -10 -9 0 -16 -7 -16 -15 0 -8 -4 -15 -10 -15 -11 0
-13 11 -4 34 7 18 30 21 39 6z m68 -4 c21 0 23 -14 3 -22 -10 -4 -14 -16 -11
-34 2 -21 -1 -31 -15 -35 -22 -7 -33 -55 -17 -75 7 -8 0 -5 -15 5 -18 14 -22
21 -12 23 17 4 17 7 4 33 -8 14 -7 19 2 19 9 0 9 3 -2 10 -9 6 -11 10 -3 10 7
0 10 7 7 15 -4 8 -1 15 6 15 8 0 10 9 6 26 -6 23 -4 25 11 19 10 -4 26 -8 36
-9z m54 -18 c-3 -8 -6 -5 -6 6 -1 11 2 17 5 13 3 -3 4 -12 1 -19z m97 -3 c-4
-8 -10 -15 -15 -15 -5 0 -9 7 -9 15 0 8 7 15 15 15 9 0 12 -6 9 -15z m-114
-15 c0 -5 -7 -10 -16 -10 -8 0 -12 5 -9 10 3 6 10 10 16 10 5 0 9 -4 9 -10z
m40 -20 c0 -5 -4 -10 -10 -10 -5 0 -10 5 -10 10 0 6 5 10 10 10 6 0 10 -4 10
-10z m170 -35 c0 -10 10 -15 30 -15 29 0 42 -21 21 -34 -4 -3 -6 -18 -3 -32 4
-25 3 -26 -22 -22 -15 3 -26 1 -27 -6 0 -7 -3 -6 -6 2 -2 6 -9 12 -14 12 -6 0
-7 -5 -3 -11 7 -12 -12 -29 -33 -29 -7 0 -13 7 -13 16 0 14 2 15 17 3 14 -12
15 -12 10 1 -4 8 -10 23 -13 33 -4 9 -10 17 -15 17 -5 0 -9 8 -9 17 0 9 3 14
6 10 4 -3 18 7 32 23 29 33 42 38 42 15z m-232 -56 c10 -14 9 -17 -7 -22 -15
-3 -18 -1 -14 11 5 11 3 13 -8 7 -12 -8 -12 -6 0 8 8 10 14 16 15 15 1 -2 7
-10 14 -19z m76 3 c2 -4 1 -14 -3 -21 -6 -9 -10 -7 -14 8 -5 20 7 29 17 13z
m20 -46 c-6 -15 -24 -23 -24 -11 0 8 24 34 28 30 1 -1 0 -10 -4 -19z m-104
-33 c0 -19 -13 -16 -33 7 -23 27 -22 30 8 17 14 -7 25 -18 25 -24z m306 -5
c-1 -32 -5 -44 -18 -46 -12 -2 -18 3 -18 13 0 14 3 15 15 5 9 -7 15 -8 15 -2
0 16 -33 24 -42 10 -4 -7 -8 -17 -8 -21 0 -5 -4 -6 -9 -2 -21 12 -7 44 22 51
15 3 31 12 34 20 8 22 9 17 9 -28z m-136 -8 c5 0 10 -8 10 -17 -1 -16 -2 -16
-15 1 -13 18 -20 15 -16 -6 0 -5 -3 -8 -8 -8 -5 0 -7 15 -6 33 4 44 5 45 15
20 5 -13 14 -23 20 -23z m-91 3 c6 -10 11 -14 11 -9 0 11 29 -25 30 -36 0 -5
-7 -8 -16 -8 -10 0 -14 6 -10 15 3 8 1 14 -5 12 -6 -1 -18 8 -26 21 -9 13 -11
22 -5 22 6 0 16 -8 21 -17z m151 -48 c13 -14 21 -28 18 -31 -4 -3 -11 4 -18
15 -6 12 -17 21 -25 21 -8 0 -15 5 -15 10 0 17 15 11 40 -15z m-50 -16 c0 -6
-4 -7 -10 -4 -5 3 -10 11 -10 16 0 6 5 7 10 4 6 -3 10 -11 10 -16z m140 11 c0
-5 -8 -10 -17 -10 -15 0 -16 2 -3 10 19 12 20 12 20 0z m1207 -125 c0 -8 -4
-12 -9 -9 -5 3 -6 10 -3 15 9 13 12 11 12 -6z m-12 -25 c3 -5 1 -10 -4 -10 -6
0 -11 5 -11 10 0 6 2 10 4 10 3 0 8 -4 11 -10z m-2925 -499 c0 -5 -9 -7 -20
-4 -11 3 -20 7 -20 9 0 2 9 4 20 4 11 0 20 -4 20 -9z m107 -17 c-3 -3 -12 -4
-19 -1 -8 3 -5 6 6 6 11 1 17 -2 13 -5z m128 -42 c-3 -3 -11 0 -18 7 -9 10 -8
11 6 5 10 -3 15 -9 12 -12z m-48 -8 c-3 -3 -12 -4 -19 -1 -8 3 -5 6 6 6 11 1
17 -2 13 -5z m-3557 -109 c7 -9 8 -15 2 -15 -5 0 -12 7 -16 15 -3 8 -4 15 -2
15 2 0 9 -7 16 -15z m4755 -136 c22 -14 74 -46 115 -70 41 -24 106 -67 145
-95 151 -109 340 -248 345 -253 3 -3 38 -28 79 -56 98 -67 241 -204 241 -231
0 -20 -7 -22 -112 -28 -62 -4 -158 -14 -213 -23 l-101 -16 -97 27 c-96 27
-101 28 -230 18 -73 -6 -134 -8 -136 -6 -2 2 -12 61 -22 131 -17 112 -34 192
-105 493 -9 36 -24 94 -35 129 -10 35 -19 67 -19 72 0 5 24 -7 53 -28 28 -21
70 -50 92 -64z m-4500 -127 c-3 -3 -11 0 -18 7 -9 10 -8 11 6 5 10 -3 15 -9
12 -12z m15 -20 c0 -4 -10 -13 -22 -21 -23 -14 -23 -14 -4 8 20 22 26 25 26
13z m110 -105 c0 -4 -6 -2 -14 5 -8 7 -12 17 -9 22 5 8 23 -12 23 -27z m121
-66 c0 -3 2 -14 4 -24 2 -9 -1 -15 -6 -11 -5 3 -6 10 -3 16 5 7 1 9 -9 5 -12
-4 -14 -2 -10 10 5 12 3 14 -7 8 -8 -5 -11 -4 -6 3 7 11 35 6 37 -7z m55 -54
c8 3 14 3 14 0 0 -14 -30 -14 -41 1 -11 14 -11 15 0 5 7 -6 20 -9 27 -6z m128
-93 c3 -8 2 -12 -4 -9 -6 3 -10 10 -10 16 0 14 7 11 14 -7z m241 -112 c-3 -3
-11 0 -18 7 -9 10 -8 11 6 5 10 -3 15 -9 12 -12z m3778 -777 c31 -4 57 -8 58
-9 0 0 3 -51 6 -113 l5 -111 -82 -81 c-45 -45 -87 -80 -93 -78 -6 2 -18 17
-27 35 -16 29 -16 38 0 144 10 62 21 139 25 171 6 54 9 58 28 54 12 -3 48 -9
80 -12z m-6023 -521 c36 -45 77 -101 91 -125 15 -24 61 -98 104 -164 94 -144
133 -226 186 -388 23 -67 55 -152 71 -190 17 -37 28 -70 25 -73 -12 -13 -95
47 -197 142 -152 142 -199 192 -309 333 -90 116 -99 131 -104 181 -6 48 -10
284 -8 409 l1 45 38 -44 c20 -24 66 -81 102 -126z m6081 -201 c-13 -242 -22
-308 -77 -578 -79 -392 -192 -718 -357 -1030 l-42 -79 -410 3 c-251 1 -414 6
-420 12 -6 6 -10 66 -9 141 l1 131 34 31 c19 17 100 88 179 157 239 208 488
471 539 568 7 13 32 49 55 80 76 100 167 279 211 415 9 27 23 87 32 135 l16
86 86 42 c47 23 104 59 126 80 22 21 42 37 44 36 2 -1 -2 -105 -8 -230z
m-1402 -1589 l-1 -91 -130 -7 c-71 -4 -132 -6 -134 -3 -7 6 57 69 109 107 27
19 69 51 95 71 31 24 50 32 54 25 5 -6 7 -52 7 -102z m2569 -227 c-13 -106
-12 -106 -75 -73 -21 11 -21 12 28 84 27 41 49 78 49 84 0 6 2 9 5 7 2 -3 -1
-48 -7 -102z m-7783 -442 c96 -293 367 -752 564 -957 24 -26 42 -51 38 -55 -4
-3 -12 -2 -17 3 -7 7 -32 8 -68 2 -31 -4 -96 -7 -144 -6 l-88 1 -41 106 c-70
177 -147 418 -183 571 -19 80 -48 199 -65 265 -44 174 -43 209 4 70z m2751
-326 c9 -16 -12 -33 -31 -25 -14 5 -15 9 -5 21 15 18 26 19 36 4z m397 -769
c62 -37 75 -104 28 -151 -54 -53 -143 -28 -157 45 -7 42 11 80 52 106 37 24
37 24 77 0z m322 -56 c34 -13 45 -58 45 -187 0 -82 4 -127 12 -135 7 -7 39
-12 74 -12 92 0 94 4 94 163 0 120 2 133 22 154 37 40 109 30 133 -18 20 -38
22 -760 2 -799 -26 -52 -95 -62 -137 -20 -18 18 -20 34 -20 160 0 168 -6 180
-91 180 -89 0 -89 0 -89 -158 0 -150 -8 -178 -54 -200 -32 -16 -69 -9 -96 18
-19 19 -20 35 -20 417 0 394 0 397 22 420 21 23 67 30 103 17z m1282 -94 c29
-52 56 -96 61 -98 5 -1 24 26 42 60 18 35 44 80 57 101 l24 38 66 -3 c102 -5
102 -6 -11 -210 l-96 -175 0 -227 c0 -212 -1 -227 -20 -246 -27 -27 -64 -34
-96 -18 -50 23 -54 44 -54 284 l0 222 -90 163 c-86 155 -99 187 -83 203 4 4
39 5 77 4 l71 -3 52 -95z m-684 -104 l29 -23 -32 -27 c-17 -14 -36 -24 -41
-20 -5 3 -9 25 -9 50 0 51 11 55 53 20z m467 -26 c0 -27 -3 -50 -7 -50 -3 0
-21 12 -40 26 l-34 26 32 24 c18 13 37 24 41 24 4 0 8 -22 8 -50z m1080 30
c18 -6 20 -8 7 -9 -10 -1 -32 -14 -48 -30 -37 -38 -38 -82 -2 -170 36 -89 37
-199 3 -286 -33 -85 -108 -158 -185 -180 -105 -31 -196 -4 -274 80 -68 74 -86
123 -86 235 0 84 3 102 29 158 32 69 86 124 150 153 47 21 139 25 196 8 34
-10 42 -9 70 11 50 36 93 45 140 30z m-3268 -30 c21 -6 58 -26 83 -45 25 -19
51 -35 58 -35 7 0 26 14 42 30 36 38 118 64 172 54 62 -10 120 -50 150 -102
27 -45 28 -54 31 -197 3 -118 7 -154 20 -167 21 -24 77 -23 102 2 19 19 20 33
20 199 0 175 1 181 24 207 33 39 89 39 122 0 23 -26 24 -32 24 -214 0 -104 -5
-205 -11 -227 -16 -59 -98 -135 -171 -158 -53 -17 -61 -17 -112 -2 -74 22
-131 65 -160 122 -21 42 -24 65 -28 185 -3 116 -6 140 -22 157 -28 31 -79 28
-105 -5 -20 -25 -21 -40 -21 -219 l0 -193 -32 -27 c-38 -32 -81 -29 -115 11
-22 24 -23 32 -23 220 0 181 -1 195 -20 214 -11 11 -33 20 -50 20 -17 0 -39
-9 -50 -20 -19 -19 -20 -33 -20 -214 0 -178 -2 -195 -20 -219 -39 -49 -116
-42 -145 14 -19 36 -21 401 -3 461 18 59 81 125 136 142 58 18 77 19 124 6z
m2046 -26 c62 -31 106 -79 141 -154 22 -47 26 -69 26 -150 0 -112 -18 -161
-86 -235 -78 -84 -168 -111 -271 -81 -103 30 -184 127 -208 253 -30 150 48
317 173 374 64 28 160 26 225 -7z"/>
<path d="M8000 8180 c-9 -6 -10 -10 -3 -10 6 0 15 5 18 10 8 12 4 12 -15 0z"/>
<path d="M8140 8180 c0 -5 5 -10 11 -10 5 0 7 5 4 10 -3 6 -8 10 -11 10 -2 0
-4 -4 -4 -10z"/>
<path d="M8135 8130 c-3 -5 -1 -10 4 -10 6 0 11 5 11 10 0 6 -2 10 -4 10 -3 0
-8 -4 -11 -10z"/>
<path d="M7860 8040 c0 -5 5 -10 10 -10 6 0 10 5 10 10 0 6 -4 10 -10 10 -5 0
-10 -4 -10 -10z"/>
<path d="M7857 7856 c-6 -14 0 -26 13 -26 3 0 6 9 7 20 2 23 -12 27 -20 6z"/>
<path d="M6495 757 c-34 -34 -45 -52 -50 -91 -20 -128 85 -235 187 -193 162
68 121 327 -51 327 -38 0 -49 -5 -86 -43z"/>
<path d="M5485 781 c-88 -53 -106 -181 -38 -262 103 -122 274 -21 248 147 -5
39 -16 57 -50 91 -37 38 -48 43 -86 43 -25 0 -57 -8 -74 -19z"/>
<path d="M9370 10235 c0 -3 22 -38 49 -78 58 -86 241 -288 337 -373 189 -166
301 -260 371 -310 121 -87 113 -87 113 -2 l0 73 -98 72 c-126 94 -200 161
-464 414 l-216 209 -46 0 c-25 0 -46 -2 -46 -5z"/>
<path d="M2570 9965 c-6 -19 -8 -40 -4 -46 4 -7 3 -9 -3 -6 -15 9 -26 -40 -14
-60 7 -14 11 -9 20 23 15 51 25 124 18 124 -3 0 -11 -16 -17 -35z m-13 -97
c-3 -8 -6 -5 -6 6 -1 11 2 17 5 13 3 -3 4 -12 1 -19z"/>
<path d="M2531 9845 c1 -19 18 -51 18 -35 0 8 -4 22 -9 30 -5 8 -9 11 -9 5z"/>
<path d="M2501 9704 c0 -11 3 -14 6 -6 3 7 2 16 -1 19 -3 4 -6 -2 -5 -13z"/>
<path d="M2381 8724 c0 -11 3 -14 6 -6 3 7 2 16 -1 19 -3 4 -6 -2 -5 -13z"/>
<path d="M2365 8679 c-5 -14 -1 -27 11 -38 17 -15 17 -15 5 1 -7 9 -10 26 -6
38 3 11 4 20 1 20 -2 0 -8 -10 -11 -21z"/>
<path d="M2332 8593 c-10 -34 -10 -36 3 -19 13 17 21 56 12 56 -2 0 -9 -17
-15 -37z"/>
<path d="M2380 8571 c0 -6 4 -13 10 -16 6 -3 7 1 4 9 -7 18 -14 21 -14 7z"/>
<path d="M2433 8555 c-3 -9 -3 -18 -1 -21 3 -3 8 4 11 16 6 23 -1 27 -10 5z"/>
<path d="M2315 8530 c3 -5 8 -10 11 -10 2 0 4 5 4 10 0 6 -5 10 -11 10 -5 0
-7 -4 -4 -10z"/>
<path d="M2307 8494 c5 -13 3 -15 -8 -9 -8 4 -11 5 -7 0 4 -4 2 -17 -4 -29
-10 -19 -9 -19 5 -8 13 11 16 10 21 -6 4 -11 4 -27 0 -36 -3 -9 -1 -16 6 -16
6 0 9 4 5 9 -3 5 -1 12 5 16 5 3 10 15 10 26 0 11 -4 17 -10 14 -10 -6 -14 7
-11 32 1 6 -3 14 -9 18 -6 4 -7 -1 -3 -11z"/>
<path d="M2330 8498 c0 -9 5 -20 10 -23 13 -8 13 5 0 25 -8 13 -10 13 -10 -2z"/>
<path d="M4740 8181 c0 -6 4 -13 10 -16 6 -3 7 1 4 9 -7 18 -14 21 -14 7z"/>
<path d="M5030 7786 c0 -2 7 -7 16 -10 8 -3 12 -2 9 4 -6 10 -25 14 -25 6z"/>
<path d="M5070 7746 c0 -2 8 -10 18 -17 15 -13 16 -12 3 4 -13 16 -21 21 -21
13z"/>
<path d="M5199 7648 c10 -13 10 -18 2 -18 -7 0 -9 -5 -5 -11 4 -8 9 -7 15 2 7
11 14 10 41 -5 l33 -19 -25 27 c-13 15 -29 25 -36 22 -6 -2 -18 1 -25 7 -11
10 -11 9 0 -5z"/>
<path d="M5220 7612 c0 -10 22 -32 32 -32 5 0 3 9 -4 20 -13 20 -28 27 -28 12z"/>
<path d="M5282 7587 c-6 -7 -8 -17 -4 -23 11 -16 87 -71 78 -56 -4 6 -3 12 3
12 5 0 12 -9 16 -19 7 -25 34 -35 51 -20 17 14 19 -2 2 -19 -12 -12 -1 -17 31
-13 7 2 10 -3 6 -9 -3 -6 -3 -9 2 -8 4 2 8 -1 8 -5 0 -12 65 -46 88 -47 10 0
15 -4 12 -10 -8 -13 90 -61 110 -54 9 4 15 2 13 -5 -4 -17 98 -72 119 -64 12
5 14 3 8 -7 -6 -10 -4 -12 8 -7 10 3 17 2 17 -3 0 -14 72 -48 89 -42 9 3 11 0
6 -8 -6 -10 -4 -12 8 -7 9 3 19 2 22 -3 4 -6 11 -10 16 -10 6 0 7 5 3 11 -4 8
4 9 27 5 32 -6 32 -5 9 5 -14 6 -38 13 -55 14 -49 5 -89 15 -100 27 -7 7 -6 9
1 5 15 -9 80 -19 73 -12 -4 3 -17 8 -30 10 -41 8 -79 27 -73 36 3 5 2 8 -3 7
-4 -1 -19 3 -33 10 -23 12 -24 12 -6 -2 18 -15 18 -16 2 -16 -10 0 -20 9 -23
20 -4 15 -9 18 -18 10 -9 -8 -15 -8 -20 0 -3 5 -1 10 6 10 7 0 4 6 -6 14 -11
8 -24 12 -29 9 -4 -3 -12 1 -17 8 -4 8 -12 14 -16 14 -4 1 -26 12 -48 26 -22
14 -51 32 -65 39 -23 12 -24 12 -11 -3 11 -15 11 -17 -2 -17 -8 0 -20 13 -25
30 -8 22 -15 28 -28 23 -12 -4 -15 -3 -10 5 5 8 1 10 -11 5 -10 -3 -15 -3 -11
2 4 4 -3 15 -15 25 -17 14 -26 16 -42 7 -18 -9 -19 -9 -5 8 14 17 13 17 -9 10
-16 -5 -21 -4 -17 4 4 6 2 11 -4 11 -6 0 -8 4 -5 10 3 6 -1 7 -10 4 -10 -4
-15 -2 -13 7 2 7 -4 14 -12 15 -8 0 -18 2 -22 4 -5 1 -12 3 -17 4 -5 0 -13 5
-18 10 -4 5 -3 6 4 2 14 -7 28 10 14 18 -5 3 -13 0 -19 -7z m65 -54 c0 -8 -6
-9 -19 -2 -10 5 -18 11 -18 12 0 2 8 3 18 3 10 0 19 -6 19 -13z m269 -170 c-7
-7 -26 7 -26 19 0 6 6 6 15 -2 9 -7 13 -15 11 -17z m61 -26 c7 0 10 -4 7 -8
-2 -4 -18 -3 -34 3 -35 12 -41 23 -7 12 12 -4 27 -7 34 -7z"/>
<path d="M4541 7524 c0 -11 3 -14 6 -6 3 7 2 16 -1 19 -3 4 -6 -2 -5 -13z"/>
<path d="M148 7448 c-8 -13 -19 -34 -23 -48 -4 -14 -34 -77 -67 -140 -56 -109
-59 -117 -56 -180 l3 -65 19 50 c11 28 43 106 72 175 42 101 81 230 69 230 -2
0 -9 -10 -17 -22z"/>
<path d="M6020 7150 c18 -12 47 -13 53 -2 3 4 -11 8 -31 9 -26 1 -32 -1 -22
-7z"/>
<path d="M6076 7135 c-11 -8 -16 -15 -10 -15 5 0 18 7 28 15 11 8 16 15 10 15
-5 0 -18 -7 -28 -15z"/>
<path d="M6119 7137 c-8 -21 -5 -38 7 -33 45 19 49 19 29 2 -19 -15 -19 -16
-1 -9 14 5 17 3 11 -7 -6 -10 -3 -12 13 -8 12 4 20 2 16 -3 -6 -10 9 -12 19
-3 11 12 -5 33 -20 27 -11 -4 -14 -2 -9 5 4 7 6 12 4 12 -2 0 -18 4 -36 9 -17
5 -32 9 -33 8z"/>
<path d="M6256 7078 c5 -8 2 -9 -9 -5 -9 3 -19 2 -21 -2 -10 -16 6 -19 36 -9
22 8 26 13 16 19 -19 12 -30 11 -22 -3z"/>
<path d="M4602 7060 c0 -8 4 -26 8 -40 6 -20 8 -21 8 -5 0 11 -3 29 -8 40 -5
12 -8 14 -8 5z"/>
<path d="M6283 7057 l-23 -13 30 -11 c17 -6 28 -8 25 -3 -3 5 -1 11 5 15 11 7
4 25 -8 25 -4 -1 -17 -6 -29 -13z m32 -7 c-3 -5 -12 -10 -18 -10 -7 0 -6 4 3
10 19 12 23 12 15 0z"/>
<path d="M6356 7035 c4 -8 11 -15 16 -15 6 0 5 6 -2 15 -7 8 -14 15 -16 15 -2
0 -1 -7 2 -15z"/>
<path d="M6330 7031 c0 -5 5 -13 10 -16 6 -3 10 -2 10 4 0 5 -4 13 -10 16 -5
3 -10 2 -10 -4z"/>
<path d="M6440 7009 c0 -5 5 -7 10 -4 6 3 10 8 10 11 0 2 -4 4 -10 4 -5 0 -10
-5 -10 -11z"/>
<path d="M2580 6557 c0 -29 44 -145 81 -216 21 -41 37 -76 36 -77 -1 -1 -40
-11 -86 -23 -46 -11 -128 -43 -183 -71 -110 -56 -139 -60 -256 -35 -95 20
-253 82 -267 105 -3 5 -11 10 -17 10 -18 0 202 -208 244 -232 l37 -21 -20 -28
c-11 -16 -33 -57 -49 -92 -22 -49 -41 -73 -82 -105 -71 -54 -156 -91 -229 -99
-32 -3 -59 -9 -59 -13 0 -12 172 -63 228 -68 35 -3 52 -9 49 -16 -6 -14 27
-189 49 -265 16 -57 72 -176 79 -169 2 2 -2 28 -10 58 -20 75 -18 83 7 31 23
-47 144 -180 133 -146 -3 11 -16 58 -27 105 -69 283 47 559 299 711 67 40 177
89 200 89 2 0 -15 -23 -37 -52 -81 -102 -117 -200 -127 -342 l-6 -100 26 17
c27 17 84 23 102 9 16 -11 15 -102 -1 -134 -14 -27 -79 -68 -108 -68 -11 0
-13 -10 -9 -42 12 -102 45 -228 76 -286 71 -140 198 -272 329 -343 57 -30 71
-34 143 -34 68 0 92 5 160 33 131 54 149 70 199 174 70 146 96 257 96 413 0
149 -13 220 -69 381 -43 126 -111 233 -210 331 -51 51 -52 54 -25 47 68 -16
322 -103 362 -123 23 -12 42 -19 42 -17 0 13 -94 92 -168 142 -46 31 -81 58
-79 61 3 2 35 -8 72 -22 37 -14 70 -25 72 -25 19 0 -97 80 -181 125 -101 54
-230 95 -341 110 -198 25 -351 120 -436 270 -32 57 -39 64 -39 42z m250 -727
c0 -5 -2 -10 -4 -10 -3 0 -8 5 -11 10 -3 6 -1 10 4 10 6 0 11 -4 11 -10z m274
-261 c-4 -8 3 -9 24 -5 53 12 99 -16 127 -76 36 -79 42 -154 17 -211 -31 -70
-84 -88 -142 -47 -18 13 -30 18 -26 11 18 -29 -32 9 -59 45 -37 48 -49 147
-25 197 9 18 15 37 13 43 -1 5 12 19 30 32 34 24 52 29 41 11z m-261 -113 c-3
-35 -20 -56 -45 -56 -18 0 -20 5 -14 33 11 56 63 76 59 23z m567 -120 c0 -8 6
-17 13 -20 6 -3 1 -4 -13 -3 -28 2 -42 37 -16 37 9 0 16 -6 16 -14z m-430 -36
c0 -5 -2 -10 -4 -10 -3 0 -8 5 -11 10 -3 6 -1 10 4 10 6 0 11 -4 11 -10z m495
-9 c-3 -6 -14 -11 -23 -11 -13 0 -13 2 4 14 21 15 30 14 19 -3z m5 -25 c15 0
16 -6 11 -67 0 -9 -13 -20 -27 -23 -17 -5 -24 -12 -20 -21 6 -18 -3 -45 -15
-45 -5 0 -9 7 -9 15 0 8 -4 15 -9 15 -5 0 -12 16 -16 36 -5 27 -2 41 11 55 9
10 14 25 10 34 -4 12 0 14 22 8 15 -4 34 -7 42 -7z m69 -59 c16 -20 3 -27 -25
-15 -18 8 -21 14 -12 20 18 11 24 10 37 -5z m-196 -83 c-2 -7 0 -15 6 -19 14
-8 14 -25 1 -25 -5 0 -10 6 -10 13 0 8 -10 13 -22 13 -23 -1 -35 23 -24 50 5
13 9 13 30 -3 13 -10 22 -23 19 -29z m22 36 c3 -5 1 -10 -4 -10 -6 0 -11 5
-11 10 0 6 2 10 4 10 3 0 8 -4 11 -10z m50 -96 c9 3 24 -3 35 -14 22 -22 13
-28 -9 -7 -11 10 -13 6 -7 -21 4 -24 2 -31 -6 -26 -7 5 -9 2 -5 -8 4 -11 -1
-18 -14 -21 -11 -3 -19 -14 -19 -25 0 -28 -53 -65 -68 -50 -9 9 -12 8 -12 -5
0 -19 25 -23 35 -6 4 6 13 8 21 5 8 -3 14 -1 14 4 0 5 8 11 18 14 11 4 18 15
18 27 -1 23 38 37 49 19 3 -6 10 -10 16 -10 5 0 0 9 -11 20 -23 23 -26 40 -7
40 7 0 18 -15 25 -33 14 -38 5 -73 -41 -163 -32 -63 -46 -75 -140 -118 -84
-38 -184 -61 -220 -50 -45 13 -137 57 -137 65 0 5 9 14 20 21 11 7 20 21 20
31 0 15 7 18 37 15 33 -3 38 0 45 27 4 17 17 41 28 55 19 24 20 24 26 5 5 -18
11 -20 51 -15 26 3 48 10 50 17 3 8 -6 11 -24 9 -15 -2 -34 1 -40 6 -9 7 -13
7 -13 -3 0 -8 -8 -5 -22 9 -13 11 -42 26 -65 34 -44 13 -56 27 -25 29 9 0 26
3 37 5 11 2 39 6 63 8 29 2 48 10 58 24 9 13 21 18 33 15 11 -3 28 4 40 16 12
12 21 18 21 15 0 -4 7 -1 15 6 12 10 15 10 15 -4 0 -9 5 -16 11 -16 7 0 9 10
7 25 -4 21 -1 25 19 25 17 0 22 4 17 13 -6 8 -3 8 9 -2 9 -7 24 -11 32 -7z
m-143 -16 c-7 -7 -12 -8 -12 -2 0 6 3 14 7 17 3 4 9 5 12 2 2 -3 -1 -11 -7
-17z m238 -8 c0 -5 -5 -10 -11 -10 -5 0 -7 5 -4 10 3 6 8 10 11 10 2 0 4 -4 4
-10z m-575 -18 c-3 -3 -11 0 -18 7 -9 10 -8 11 6 5 10 -3 15 -9 12 -12z m55
-66 c0 -2 -7 -6 -15 -10 -8 -3 -15 -1 -15 4 0 6 7 10 15 10 8 0 15 -2 15 -4z
m-10 -42 c0 -8 -4 -12 -10 -9 -5 3 -10 10 -10 16 0 5 5 9 10 9 6 0 10 -7 10
-16z m-60 -56 c0 -4 -7 -8 -16 -8 -14 0 -14 -3 -4 -15 11 -13 10 -14 -4 -9 -9
3 -15 13 -14 22 2 8 -3 17 -9 19 -7 3 -13 -2 -13 -11 0 -9 -4 -16 -10 -16 -11
0 -13 11 -4 33 4 12 12 13 40 4 19 -6 34 -14 34 -19z m123 -52 c-4 -5 -12 0
-20 10 -12 16 -15 17 -23 4 -5 -8 -12 -11 -16 -8 -9 10 24 41 36 33 6 -3 8 2
5 12 -3 10 1 5 9 -12 8 -16 12 -34 9 -39z m-63 45 c0 -5 -6 -14 -14 -20 -12
-10 -13 -8 -9 8 5 21 23 30 23 12z m-100 -36 c7 -8 10 -21 7 -28 -3 -7 3 -13
13 -13 10 0 17 3 14 7 -2 4 3 10 12 13 9 3 12 11 8 18 -6 10 -5 11 8 1 8 -7
19 -9 23 -5 5 4 5 1 1 -6 -4 -7 -11 -10 -16 -7 -4 3 -10 -2 -14 -10 -3 -8 0
-17 6 -21 7 -4 8 -3 4 4 -4 7 -2 12 3 12 16 0 13 -15 -8 -41 l-19 -24 -31 30
c-18 16 -29 35 -26 43 3 8 0 21 -6 28 -7 8 -7 14 -1 14 5 0 15 -7 22 -15z"/>
<path d="M3130 4929 c0 -5 5 -7 10 -4 6 3 10 8 10 11 0 2 -4 4 -10 4 -5 0 -10
-5 -10 -11z"/>
<path d="M3265 4850 c3 -5 11 -10 16 -10 6 0 7 5 4 10 -3 6 -11 10 -16 10 -6
0 -7 -4 -4 -10z"/>
<path d="M10040 6540 c0 -5 1 -10 3 -11 1 0 22 -2 47 -4 l45 -5 -30 15 c-35
17 -65 19 -65 5z"/>
<path d="M7276 6458 c-11 -65 -75 -177 -138 -239 -38 -37 -84 -69 -140 -96
l-83 -40 -90 18 c-49 10 -129 20 -178 22 l-87 4 -4 109 c-2 70 -10 128 -22
163 l-18 55 -12 -78 c-25 -157 -108 -274 -252 -352 -172 -93 -291 -185 -452
-349 -80 -82 -89 -94 -56 -77 35 19 66 20 66 2 0 -4 -19 -29 -42 -56 l-43 -48
40 23 c22 14 60 38 85 56 88 61 177 104 332 159 222 78 293 90 518 89 182 -1
188 -2 343 -42 176 -45 190 -48 161 -26 -16 13 -17 16 -4 25 8 6 31 10 50 9
55 -2 57 0 24 20 -17 10 -37 33 -44 51 -15 36 -14 37 103 133 72 59 60 81 -15
27 -32 -23 -52 -30 -88 -30 -26 0 -49 3 -52 6 -4 3 11 38 32 77 52 97 80 205
84 322 4 100 -7 135 -18 63z"/>
<path d="M3020 6419 c0 -3 30 -11 68 -17 108 -16 237 -61 323 -113 77 -47 107
-59 94 -40 -3 6 7 6 27 1 l33 -9 -22 18 c-37 31 -222 107 -318 131 -100 25
-205 40 -205 29z"/>
<path d="M4865 6329 c-4 -6 -5 -12 -2 -15 2 -3 7 2 10 11 7 17 1 20 -8 4z"/>
<path d="M6095 6156 c-67 -25 -272 -134 -322 -172 -27 -20 -61 -89 -50 -101 2
-1 32 21 68 51 98 81 254 183 320 208 33 13 59 26 59 30 0 10 -5 9 -75 -16z"/>
<path d="M5110 5895 c0 -5 5 -17 10 -25 5 -8 10 -10 10 -5 0 6 -5 17 -10 25
-5 8 -10 11 -10 5z"/>
<path d="M5140 5820 c6 -11 13 -20 16 -20 2 0 0 9 -6 20 -6 11 -13 20 -16 20
-2 0 0 -9 6 -20z"/>
<path d="M4836 5814 c-6 -15 31 -36 46 -27 4 2 16 -1 26 -6 12 -7 29 -7 48 -1
l29 10 -29 -4 c-15 -2 -40 3 -55 10 -21 11 -22 14 -7 14 28 0 13 11 -22 15
-20 3 -32 -1 -36 -11z"/>
<path d="M5025 5780 c-13 -6 -15 -9 -5 -9 8 0 22 4 30 9 18 12 2 12 -25 0z"/>
<path d="M4990 5755 c7 -8 17 -15 22 -15 5 0 3 7 -6 15 -8 8 -18 15 -22 15 -3
0 -1 -7 6 -15z"/>
<path d="M5040 5760 c-8 -5 -10 -10 -5 -10 6 0 17 5 25 10 8 5 11 10 5 10 -5
0 -17 -5 -25 -10z"/>
<path d="M5108 5733 c6 -2 9 -10 6 -15 -4 -7 -2 -8 5 -4 13 9 5 26 -12 25 -9
0 -8 -2 1 -6z"/>
<path d="M5189 5711 c11 -7 11 -9 0 -14 -9 -3 -10 -6 -2 -6 6 -1 15 4 18 10 5
7 17 2 34 -13 l26 -23 -22 25 c-12 14 -33 26 -45 27 -16 2 -19 0 -9 -6z"/>
<path d="M4466 5077 l-38 -37 20 -32 c12 -18 25 -33 29 -32 4 0 17 17 27 36
16 28 18 42 10 68 l-9 33 -39 -36z"/>
<path d="M5534 4400 c-32 -13 -135 -100 -189 -160 -28 -30 -53 -56 -57 -58 -5
-2 -8 -9 -8 -16 0 -20 -94 -148 -134 -184 -41 -36 -115 -76 -191 -103 -27 -10
-41 -18 -30 -18 11 -1 65 15 120 35 55 20 151 51 212 69 62 18 162 56 222 84
60 28 112 51 116 51 12 0 146 113 155 131 14 26 12 45 -7 65 -10 9 -19 29 -21
43 -4 36 -22 51 -68 57 -37 5 -38 5 -14 -8 26 -14 37 -45 39 -112 1 -35 -5
-44 -51 -88 -33 -30 -95 -69 -166 -104 -109 -54 -251 -108 -260 -100 -2 3 6
13 18 23 12 10 33 41 47 68 59 116 167 246 244 296 58 38 64 46 23 29z"/>
<path d="M4275 3920 c-10 -17 3 -28 59 -49 44 -16 90 -21 257 -27 112 -4 201
-3 197 1 -4 4 -67 14 -140 21 -73 7 -180 25 -238 39 -118 28 -126 29 -135 15z"/>
</g>
</svg>
