<?xml version="1.0" standalone="no"?>
<!DOCTYPE svg PUBLIC "-//W3C//DTD SVG 20010904//EN"
 "http://www.w3.org/TR/2001/REC-SVG-20010904/DTD/svg10.dtd">
<svg version="1.0" xmlns="http://www.w3.org/2000/svg"
 width="512.000000pt" height="512.000000pt" viewBox="0 0 512.000000 512.000000"
 preserveAspectRatio="xMidYMid meet">
<metadata>
Created by potrace 1.11, written by Peter Selinger 2001-2013
</metadata>
<g transform="translate(0.000000,512.000000) scale(0.100000,-0.100000)"
fill="#000000" stroke="none">
<path d="M1083 4784 c-257 -43 -398 -173 -463 -427 -11 -43 -22 -106 -26 -140
-4 -34 -9 -66 -11 -70 -3 -5 -7 -133 -9 -285 -6 -468 -16 -586 -61 -727 -40
-127 -123 -232 -219 -275 -51 -24 -157 -50 -201 -50 -18 0 -34 -3 -34 -7 -1
-5 -2 -95 -3 -202 -1 -124 2 -194 9 -197 5 -1 38 -5 72 -9 106 -10 206 -56
271 -124 64 -68 127 -233 146 -381 10 -75 16 -251 20 -535 2 -148 6 -277 9
-285 3 -8 8 -37 11 -65 26 -246 117 -417 267 -503 62 -35 167 -69 242 -78 59
-7 316 -13 333 -7 16 6 16 323 0 323 -219 6 -302 26 -369 89 -85 78 -105 193
-112 651 -2 140 -6 278 -10 305 -34 295 -81 441 -181 574 -57 76 -169 167
-259 212 -36 17 -65 33 -65 35 0 1 35 21 78 44 240 129 355 309 408 635 22
132 24 164 28 446 7 390 21 513 68 598 53 94 167 140 354 141 l71 0 0 164 1
163 -147 0 c-81 -1 -179 -6 -218 -13z"/>
<path d="M3661 4791 c-8 -5 -11 -52 -9 -164 l2 -157 70 -1 c123 -1 183 -12
250 -46 139 -71 162 -163 171 -688 3 -143 7 -278 9 -300 17 -161 35 -258 66
-354 64 -201 196 -351 391 -446 l56 -28 -61 -31 c-143 -74 -246 -167 -315
-284 -41 -69 -94 -216 -104 -287 -3 -22 -8 -47 -11 -55 -5 -14 -10 -56 -21
-165 -2 -22 -6 -161 -9 -310 -7 -366 -18 -475 -57 -565 -32 -73 -99 -129 -170
-144 -13 -3 -35 -8 -49 -11 -22 -5 -115 -12 -191 -14 l-26 -1 -1 -159 c0 -111
4 -161 12 -164 17 -6 263 -1 330 7 132 16 290 87 353 160 52 60 111 174 127
247 41 183 47 240 51 519 5 295 12 483 20 519 2 14 7 46 10 73 9 76 54 207 92
266 73 114 176 172 335 190 l63 7 0 200 0 200 -88 12 c-209 30 -330 148 -386
378 -33 137 -40 236 -46 635 -3 276 -13 389 -41 510 -17 72 -19 77 -60 170
-40 90 -121 170 -216 215 -41 20 -88 38 -104 41 -16 3 -38 8 -49 11 -37 11
-69 14 -226 18 -86 2 -161 0 -168 -4z"/>
<path d="M2588 4285 c-2 -2 -28 -6 -58 -8 -137 -14 -351 -100 -474 -191 -172
-129 -301 -309 -364 -506 -18 -59 -25 -90 -37 -170 -2 -14 -4 -68 -5 -120 -3
-255 102 -505 289 -690 56 -56 172 -150 184 -150 2 0 28 -13 57 -29 l53 -29
-124 -60 c-114 -56 -216 -115 -230 -134 -3 -4 -30 13 -60 38 -30 25 -76 65
-103 88 -27 22 -56 48 -66 56 -10 8 -84 71 -165 140 -82 69 -162 137 -178 152
-17 15 -50 34 -73 42 -39 13 -44 13 -74 -6 -35 -21 -61 -44 -60 -53 0 -3 0 -6
-1 -7 -17 -55 3 -100 69 -155 31 -27 59 -50 62 -53 3 -3 34 -30 70 -60 36 -30
67 -57 70 -60 3 -3 46 -39 95 -79 50 -41 95 -80 100 -86 6 -5 38 -33 73 -62
51 -42 60 -54 49 -65 -31 -33 -107 -126 -107 -131 0 -4 -8 -16 -17 -27 -38
-43 -143 -246 -143 -274 0 -6 -4 -16 -9 -22 -6 -5 -12 -20 -15 -34 -3 -14 -10
-41 -17 -60 -6 -19 -13 -54 -14 -78 -3 -37 0 -45 23 -60 15 -9 29 -19 32 -23
8 -11 299 -149 313 -149 7 0 17 -4 22 -8 6 -5 37 -19 70 -31 33 -13 69 -27 80
-32 11 -5 29 -11 40 -12 11 -2 27 -7 35 -10 8 -3 29 -9 45 -13 17 -4 35 -8 40
-10 6 -1 25 -5 44 -9 19 -3 38 -8 42 -10 10 -7 107 -21 203 -30 32 -3 62 -8
67 -11 5 -3 9 -1 9 4 0 5 17 6 38 3 68 -12 433 -1 515 15 21 4 71 13 109 20
83 14 314 88 398 126 25 11 50 21 55 22 11 2 171 82 225 113 110 63 119 70
185 126 34 28 50 63 34 73 -5 3 -7 9 -4 13 6 11 -49 146 -98 241 -76 146 -215
314 -342 415 -27 22 -51 43 -53 48 -2 4 -8 7 -14 7 -5 0 -24 11 -41 24 -43 33
-223 124 -271 137 l-39 10 81 48 c88 53 159 108 208 161 18 19 44 48 58 63 80
86 174 268 202 390 2 9 6 27 9 40 26 108 25 280 -1 400 -3 12 -7 32 -10 45 -9
44 -55 157 -90 222 -148 270 -431 466 -744 516 -39 6 -247 13 -252 9z"/>
</g>
</svg>
